<svg width="7430" height="2694" viewBox="0 0 7430 2694" fill="none" xmlns="http://www.w3.org/2000/svg">
<path d="M1122.07 40C1117.27 32.4 1102.07 28.8333 1095.07 28C1089.24 28 1078.34 28.9328 1074.07 30C1070.07 31 1070.07 31 1066.07 33.5C1058.72 38.0953 1045.47 48.3205 1042.07 49C1037.07 50 1030.07 42 1023.07 44C1016.07 46 1021.07 55.5 1018.07 66.5C1015.07 77.5 955 119 946.573 121C941.11 122.296 935 123.5 930.5 121L922.5 127.5C926.5 132.5 922.573 142.9 920.573 146.5C918.073 151 854.073 203.5 846.573 202C840.573 200.8 837.073 197 835.073 193L808.573 213C808.573 213 813.573 220 811.573 223.5C809.573 227 797.073 232.5 797.073 232.5C790.239 229.5 792.31 227.859 786.073 229.5C776.573 232 772.573 238.5 767.573 244.5C763.562 249.313 770.073 251 768.073 257C766.073 263 755.615 270.893 753.573 276C752.573 278.5 751.729 279.312 753.573 283C754.573 285 778.073 311.5 786.073 336.5C794.073 361.5 821.073 373 834.573 389.5C848.073 406 845.726 401.569 851.073 418.5C857.073 437.5 869.573 464 878.073 517C882.19 542.672 897.947 624.86 902.573 653C908.573 689.5 910.073 704 911.073 713C912.073 722 904.573 761.5 915.073 807C925.573 852.5 939.073 875 954.573 915.5C970.073 956 995.962 991.482 999.573 997.5C1002.57 1002.5 1005.57 1006 1007.57 1012C1012.41 1020.17 1012.57 1023 1019.07 1027.5C1023.05 1030.25 1024.57 1032.33 1026.07 1031.5C1031.41 1040.17 1043.57 1064 1049.57 1090C1057.07 1122.5 1065.07 1316.5 1070.07 1343.5C1074.07 1365.1 1088.74 1401.83 1095.57 1417.5L1082.57 1425.5C1091.24 1449.17 1108.97 1502.8 1110.57 1528C1112.57 1559.5 1094.07 1610.5 1088.57 1613C1083.07 1615.5 1005 1693 989 1694.5C976.2 1695.7 893.739 1679.33 880.073 1673C867.573 1691.33 840.773 1730.2 833.573 1739C824.573 1750 717.573 1748.5 690.073 1750.5C662.573 1752.5 615.573 1771.5 592.073 1774C568.573 1776.5 550.573 1775 528.073 1781C510.073 1785.8 496.573 1806 496.573 1806C496.573 1806 472.073 1806.9 460.073 1812.5C445.073 1819.5 430.573 1830 420.073 1866C409.573 1902 405.927 1930.5 403.5 1945C401.543 1956.69 396.927 1970.5 388 2018.5C379.102 2066.34 374.427 2083.5 364.5 2123C361.159 2136.29 343.119 2199.81 335.5 2236C327.5 2274 291.573 2384.5 290.073 2396.5C288.573 2408.5 234.573 2477 215.073 2490C195.573 2503 125.573 2526.5 82.5728 2548.5C39.5728 2570.5 25.0728 2591 18.0728 2596C11.0728 2601 2.57275 2619 1.07275 2634C-0.427254 2649 21.5727 2676.5 39.0727 2683.5C56.5727 2690.5 78.0013 2691.33 79.5727 2691.5C84.0728 2692 86.0969 2692.42 93.0728 2693C99.0728 2693.5 99.4497 2693.5 103.573 2693.5C107.073 2693.5 117.073 2692.5 127.573 2691.5C135.782 2690.72 150.573 2691 156.073 2688.5C161.573 2686 172.573 2695 177.073 2686.5C181.573 2678 196.073 2675 200.573 2673C205.073 2671 215.073 2670.5 220.073 2673C222.073 2674 223.406 2672.33 228.073 2670C227.406 2667.33 227.573 2667 231.573 2659C236.353 2649.44 311.073 2622 315.573 2620.5C320.073 2619 322.573 2622 328.073 2622C333.573 2622 330.073 2620 339.073 2616.5C348.073 2613 351.573 2621 355.073 2617.5C358.573 2614 369.073 2605.5 375.073 2603.5C382.073 2601.17 378.458 2601.86 388.073 2604C392.314 2604.94 391.277 2604.8 395.073 2604C399.332 2603.11 404.073 2601.5 407.073 2599.5C411.356 2596.65 408.573 2599 409.573 2593.5C410.573 2588 434.573 2564 436.073 2548C437.573 2532 424.573 2516 417.573 2493.5C410.573 2471 414.073 2458 421.573 2435.5C429.073 2413 436.655 2399.96 460.073 2355C485.073 2307 496.412 2293.68 519.073 2258C542.573 2221 550.073 2215.5 563.573 2200C577.073 2184.5 588.084 2150.25 590.573 2142.5C592.5 2136.5 593 2134.5 594.073 2131C601.23 2107.65 601.773 2054 598.573 2050C594.573 2045 602.573 2006.5 602.573 1998C602.573 1989.5 643.573 1988.5 689.073 1990C734.573 1991.5 793.073 2000 819.573 1998C846.073 1996 906.073 2016 930.573 2017.5C955.073 2019 1041.57 2014.5 1065.57 2011.5C1089.57 2008.5 1096.07 2038.5 1109.57 2049C1123.07 2059.5 1163.57 2044 1174.57 2042.5C1185.57 2041 1193.57 2049.5 1207.07 2049C1220.57 2048.5 1237.57 2055 1250.07 2059.5C1260.07 2063.1 1284.24 2066.67 1295.07 2068C1331.41 2075.83 1398.57 2081.5 1406.07 2081.5C1412.59 2081.5 1438.57 2082.5 1444.07 2082.5C1448.47 2082.5 1456.57 2081.5 1461.07 2081C1467.57 2079.5 1483.07 2074.7 1495.07 2073.5C1510.07 2072 1515.57 2086 1549.07 2091.5C1582.57 2097 1613.57 2106.5 1623.57 2106.5C1633.57 2106.5 1673.07 2119 1670.57 2122C1668.57 2124.4 1659.07 2133 1654.57 2137C1612.07 2166.17 1523.97 2225.8 1511.57 2231C1496.07 2237.5 1478.07 2236 1461.07 2238.5C1444.07 2241 1427.07 2251.5 1409.57 2265.5C1392.07 2279.5 1393.07 2291.5 1385.57 2306C1378.07 2320.5 1373.07 2336.5 1378.07 2340.5C1382.07 2343.7 1392.17 2329 1393 2328.5C1390.5 2332.83 1379.57 2359.2 1385.57 2372C1393.07 2388 1399.57 2394 1403.07 2400.5C1405.87 2405.7 1409.35 2413.5 1412 2418C1414.65 2422.5 1414.5 2422.14 1417 2425C1418.69 2426.93 1420 2427.5 1422 2428C1424 2428.5 1425.5 2429 1427.5 2429.5C1429.5 2430 1452.67 2435.4 1461.07 2425C1471.57 2412 1471.57 2399 1485.07 2385C1498.57 2371 1518.57 2359.5 1529.07 2353.5C1539.57 2347.5 1547.57 2338.5 1549.57 2334.5C1551.17 2331.3 1557.57 2335.83 1560.57 2338.5H1567.07C1606.57 2325.5 1692.67 2295.2 1721.07 2278C1756.57 2256.5 1792.07 2230 1838.57 2192C1885.07 2154 1909.57 2127.5 1919.07 2119C1926.67 2112.2 1952.57 2084.5 1964.57 2071.5L1991.07 2037C1997.74 2038.5 2018.5 2025.1 2032.5 2021.5C2050 2017 2065.5 2007.5 2073.5 2001.5C2079.9 1996.7 2083.5 1992.5 2092.5 1984C2101.5 1975.5 2109.5 1970.52 2126.07 1952C2159.63 1914.5 2179.8 1857.5 2183 1846.5C2186.93 1833 2193.43 1814 2194.5 1807.5C2195.64 1800.58 2197.57 1769.5 2197.57 1761.5C2197.57 1755.1 2209.24 1733.17 2215.07 1723C2226.91 1700.33 2252.97 1651.8 2262.57 1639C2274.22 1623.47 2292.45 1612.66 2308.14 1603.35L2309.57 1602.5L2321.07 1598C2335.24 1593.83 2365.57 1583.2 2373.57 1574C2383.57 1562.5 2417.57 1518.5 2428.07 1507C2436.47 1497.8 2440.07 1493 2447.5 1482.5C2454.93 1472 2462.07 1397.3 2452.07 1382.5C2442.07 1367.7 2434.5 1361.1 2432.57 1359C2422.5 1348 2422.5 1349 2418 1344.5C2415.32 1341.82 2411 1336 2407.5 1331.5C2407.5 1331.5 2404.59 1328.5 2401 1324.5C2397.41 1320.5 2387.57 1311 2387.57 1311C2379 1302 2372.66 1297 2367.73 1293C2353.73 1281.63 2343.23 1275 2335.81 1270C2333.39 1268.37 2333 1268.5 2330.5 1267C2328.5 1266 2325 1265 2319 1263C2309.84 1259.95 2312.93 1261 2305 1257.5C2297.07 1254 2300.43 1255.7 2296 1253.5C2291.57 1251.3 2270.57 1247 2262.57 1247C2254.57 1247 2253 1246.5 2248.5 1246.5H2241.5C2239.5 1246.5 2237 1247 2234 1248.5C2231 1250 2231 1249.5 2226 1258C2219.2 1269.56 2213.91 1281.5 2215.57 1285.5C2194.24 1293.67 2151.57 1310.5 2149.57 1312.5C2147.76 1314.31 2147.57 1316 2147.57 1316.5C2146.91 1322.17 2145.27 1334 2144.07 1336C2142.87 1338 2140.24 1340.83 2139.07 1342C2113.41 1348.83 2061.57 1363.7 2059.57 1368.5C2057.57 1373.3 2061.91 1389.33 2063.57 1396.5C2059.91 1398.83 2049.67 1404.8 2044.07 1412C2038.47 1419.2 2032.57 1437.83 2029.07 1445.5C2025.41 1449.83 2013.57 1460.3 2005.57 1473.5C1995.57 1490 1999.57 1504.5 1999.07 1506C1998.57 1507.5 2004.8 1527.34 2008.57 1533C2012.57 1539 2018.57 1546.81 2024.57 1550.5C2031.07 1554.5 2049.57 1564 2048.57 1565.5C2047.77 1566.7 2036.74 1578.5 2033.07 1583C1977.25 1577.72 1952.57 1572 1912.07 1587C1838.39 1591.75 1778.22 1599 1730.57 1599C1659.07 1599 1479.57 1563 1476.57 1560C1473.57 1557 1474.5 1513 1474.5 1507.5V1495.5C1474.5 1491.5 1474.19 1488 1470.07 1477.5C1451.07 1429 1436.57 1405.5 1416.57 1358C1396.57 1310.5 1337.57 1219.5 1318.57 1185.5C1303.37 1158.3 1286.57 1141.83 1280.07 1137C1276.41 1128.67 1268.27 1105.9 1265.07 1081.5C1261.87 1057.1 1258.07 1049 1256.57 1048L1248.57 1036.5L1156.57 867.5C1149.41 842.667 1135.07 787.9 1135.07 767.5L1001.57 452C1000.24 444.833 996.673 424.3 993.073 399.5C989.473 374.7 991.573 330.5 993.073 311.5C992.24 300.5 993.073 271.2 1003.07 242C1015.57 205.5 1064.57 149 1068.57 140.5C1071.77 133.7 1101.24 96.3334 1115.57 78.5C1119.74 68.8333 1126.87 47.6 1122.07 40Z" fill="black" stroke="black"/>
<path d="M3164.6 793.4C3203.8 793.4 3237.4 787.8 3265.4 776.6C3293.4 764.6 3314.2 749 3327.8 729.8C3341.4 709.8 3351 690.2 3356.6 671C3362.2 651 3365 629.8 3365 607.4C3365 569 3353.4 535.8 3330.2 507.8C3307.8 479 3269 464.6 3213.8 464.6H3066.2V779C3098.2 788.6 3131 793.4 3164.6 793.4ZM3165.8 926.6C3130.6 926.6 3097.4 921.8 3066.2 912.2V1169H2918.6V329H3206.6C3263.4 329 3313 336.6 3355.4 351.8C3397.8 367 3431 387.8 3455 414.2C3479 440.6 3496.6 469.8 3507.8 501.8C3519 533.8 3524.6 568.6 3524.6 606.2C3524.6 665.4 3511.8 719.4 3486.2 768.2C3461.4 816.2 3423 853.8 3371 881L3551 1169H3390.2L3237.8 921.8C3207.4 925 3183.4 926.6 3165.8 926.6ZM3959.45 675.8C3894.65 675.8 3855.85 718.2 3843.05 803H4066.25C4065.45 767.8 4056.25 737.8 4038.65 713C4021.05 688.2 3994.65 675.8 3959.45 675.8ZM4205.45 1133C4140.65 1166.6 4069.45 1183.4 3991.85 1183.4C3892.65 1183.4 3817.45 1153.8 3766.25 1094.6C3715.05 1034.6 3689.45 959.4 3689.45 869C3689.45 778.6 3712.25 703.8 3757.85 644.6C3803.45 584.6 3870.65 554.6 3959.45 554.6C4046.65 554.6 4110.25 582.2 4150.25 637.4C4190.25 691.8 4210.25 765 4210.25 857V897.8H3839.45C3842.65 951.4 3857.05 992.2 3882.65 1020.2C3908.25 1048.2 3948.25 1062.2 4002.65 1062.2C4067.45 1062.2 4122.65 1049.4 4168.25 1023.8L4205.45 1133ZM4578.14 1183.4C4503.74 1183.4 4434.54 1168.6 4370.54 1139L4407.74 1023.8C4472.54 1048.6 4528.54 1061 4575.74 1061C4652.54 1061 4690.94 1039.4 4690.94 996.2C4690.94 961.8 4663.34 938.6 4608.14 926.6L4581.74 921.8C4512.14 909 4460.54 888.2 4426.94 859.4C4394.14 830.6 4377.74 791.8 4377.74 743C4377.74 695 4398.54 651.8 4440.14 613.4C4482.54 574.2 4543.74 554.6 4623.74 554.6C4698.14 554.6 4761.34 566.2 4813.34 589.4L4782.14 707C4722.14 687 4672.94 677 4634.54 677C4560.14 677 4522.94 697 4522.94 737C4522.94 754.6 4529.34 768.2 4542.14 777.8C4555.74 786.6 4576.54 793.8 4604.54 799.4L4630.94 805.4C4700.54 819 4752.14 840.2 4785.74 869C4819.34 897.8 4836.14 936.2 4836.14 984.2C4836.14 1041 4814.54 1088.6 4771.34 1127C4728.14 1164.6 4663.74 1183.4 4578.14 1183.4ZM5266.56 675.8C5201.76 675.8 5162.96 718.2 5150.16 803H5373.36C5372.56 767.8 5363.36 737.8 5345.76 713C5328.16 688.2 5301.76 675.8 5266.56 675.8ZM5512.56 1133C5447.76 1166.6 5376.56 1183.4 5298.96 1183.4C5199.76 1183.4 5124.56 1153.8 5073.36 1094.6C5022.16 1034.6 4996.56 959.4 4996.56 869C4996.56 778.6 5019.36 703.8 5064.96 644.6C5110.56 584.6 5177.76 554.6 5266.56 554.6C5353.76 554.6 5417.36 582.2 5457.36 637.4C5497.36 691.8 5517.36 765 5517.36 857V897.8H5146.56C5149.76 951.4 5164.16 992.2 5189.76 1020.2C5215.36 1048.2 5255.36 1062.2 5309.76 1062.2C5374.56 1062.2 5429.76 1049.4 5475.36 1023.8L5512.56 1133ZM5851.65 840.2V1169H5702.85V569H5784.45C5802.85 569 5814.85 577.4 5820.45 594.2L5834.85 656.6C5849.25 625.4 5870.85 600.6 5899.65 582.2C5928.45 563.8 5961.25 554.6 5998.05 554.6C6018.05 554.6 6036.45 557.8 6053.25 564.2L6020.85 707C6003.25 699 5984.85 695 5965.65 695C5932.85 695 5905.65 707 5884.05 731C5862.45 755 5851.65 791.4 5851.65 840.2ZM6497.48 1179.8H6420.68C6403.08 1179.8 6389.88 1176.6 6381.08 1170.2C6372.28 1163.8 6364.68 1151.8 6358.28 1134.2L6147.08 569H6255.08C6287.08 569 6307.88 583.4 6317.48 612.2L6436.28 986.6L6569.48 569H6725.48L6497.48 1179.8ZM7106.74 1075.4C7155.54 1075.4 7192.34 1059.4 7217.14 1027.4C7217.14 985.8 7205.94 951.8 7183.54 925.4C7161.14 899 7131.94 885.8 7095.94 885.8C7067.14 885.8 7042.74 894.6 7022.74 912.2C7003.54 929.8 6993.94 952.6 6993.94 980.6C6993.94 1008.6 7004.34 1031.4 7025.14 1049C7045.94 1066.6 7073.14 1075.4 7106.74 1075.4ZM7235.14 1169L7223.14 1101.8C7210.34 1124.2 7188.74 1143.4 7158.34 1159.4C7128.74 1175.4 7093.94 1183.4 7053.94 1183.4C6992.34 1183.4 6942.34 1165 6903.94 1128.2C6866.34 1091.4 6847.54 1045.4 6847.54 990.2C6847.54 927.8 6867.94 878.2 6908.74 841.4C6950.34 803.8 7001.94 785 7063.54 785C7133.94 785 7185.14 809 7217.14 857V818.6C7217.14 774.6 7206.74 740.6 7185.94 716.6C7165.14 691.8 7128.74 679.4 7076.74 679.4C7025.54 679.4 6974.34 693.4 6923.14 721.4L6891.94 596.6C6947.94 568.6 7014.74 554.6 7092.34 554.6C7265.94 554.6 7352.74 636.2 7352.74 799.4V1169H7235.14Z" fill="black"/>
<path d="M3095 2242V1610L2888 1594V1542H3370V1594L3163 1610V2242H3095ZM3870.73 2242L3863.73 2181C3849.73 2203.67 3829.39 2221.33 3802.73 2234C3776.06 2246 3749.73 2252 3723.73 2252C3665.73 2252 3620.73 2235.67 3588.73 2203C3557.39 2169.67 3541.73 2123.33 3541.73 2064V1742H3611.73V2053C3611.73 2144.33 3652.06 2190 3732.73 2190C3766.06 2190 3795.39 2179 3820.73 2157C3846.06 2134.33 3858.73 2099.67 3858.73 2053V1742H3928.73V2242H3870.73ZM4814.41 2502C4752.41 2502 4701.75 2488.67 4662.41 2462C4623.08 2435.33 4603.41 2396.67 4603.41 2346C4603.41 2312 4614.75 2282 4637.41 2256C4660.08 2230 4690.08 2209.33 4727.41 2194C4715.41 2182 4709.41 2167 4709.41 2149C4709.41 2115 4730.08 2091.33 4771.41 2078C4722.75 2073.33 4684.41 2055.67 4656.41 2025C4628.41 1993.67 4614.41 1956 4614.41 1912C4614.41 1862 4632.41 1819.67 4668.41 1785C4705.08 1749.67 4751.75 1732 4808.41 1732C4841.08 1732 4871.08 1738.33 4898.41 1751L5044.41 1720L5056.41 1778L5007.41 1788L4955.41 1792C4987.41 1826 5003.41 1866 5003.41 1912C5003.41 1960 4989.41 1998.33 4961.41 2027C4934.08 2055.67 4898.75 2075.67 4855.41 2087L4820.41 2096C4795.08 2102.67 4782.41 2114.67 4782.41 2132C4782.41 2151.33 4795.75 2162.33 4822.41 2165L4894.41 2173C4945.08 2178.33 4983.41 2194 5009.41 2220C5036.08 2245.33 5049.41 2279.33 5049.41 2322C5049.41 2378 5026.08 2422 4979.41 2454C4933.41 2486 4878.41 2502 4814.41 2502ZM4815.41 2032C4850.08 2032 4879.08 2021.33 4902.41 2000C4926.41 1978 4938.41 1949 4938.41 1913C4938.41 1883.67 4927.08 1856.33 4904.41 1831C4881.75 1805.67 4849.75 1793 4808.41 1793C4769.75 1793 4738.41 1804 4714.41 1826C4691.08 1848 4679.41 1877 4679.41 1913C4679.41 1947 4691.41 1975.33 4715.41 1998C4740.08 2020.67 4773.41 2032 4815.41 2032ZM4814.41 2442C4858.41 2442 4896.75 2431.67 4929.41 2411C4962.75 2391 4979.41 2361.67 4979.41 2323C4979.41 2299 4970.75 2278.67 4953.41 2262C4936.08 2246 4909.75 2236.33 4874.41 2233L4807.41 2227C4795.41 2225.67 4786.08 2224.33 4779.41 2223C4747.41 2233.67 4721.08 2249.67 4700.41 2271C4679.75 2292.33 4669.41 2316 4669.41 2342C4669.41 2376 4682.75 2401 4709.41 2417C4736.75 2433.67 4771.75 2442 4814.41 2442ZM5367.51 2242H5297.51V1742H5330.51C5343.84 1742 5351.84 1748.33 5354.51 1761L5365.51 1825C5376.84 1795.67 5394.84 1773 5419.51 1757C5444.17 1740.33 5469.84 1732 5496.51 1732C5515.84 1732 5534.17 1735 5551.51 1741L5537.51 1819C5522.84 1811 5505.51 1807 5485.51 1807C5452.84 1807 5424.84 1819 5401.51 1843C5378.84 1867 5367.51 1903.67 5367.51 1953V2242ZM5945.68 2191C5969.01 2191 5992.68 2185.33 6016.68 2174C6040.68 2162 6059.01 2146.67 6071.68 2128V2125C6071.68 2082.33 6059.35 2048.33 6034.68 2023C6010.01 1997 5977.01 1984 5935.68 1984C5903.01 1984 5875.68 1993.67 5853.68 2013C5831.68 2032.33 5820.68 2057.33 5820.68 2088C5820.68 2118.67 5832.01 2143.67 5854.68 2163C5877.35 2181.67 5907.68 2191 5945.68 2191ZM6080.68 2242L6075.68 2190C6063.01 2206.67 6043.35 2221.33 6016.68 2234C5990.01 2246 5960.01 2252 5926.68 2252C5876.68 2252 5834.35 2237.33 5799.68 2208C5765.68 2178 5748.68 2139 5748.68 2091C5748.68 2041.67 5766.01 2002 5800.68 1972C5835.35 1941.33 5877.35 1926 5926.68 1926C5962.01 1926 5992.01 1933 6016.68 1947C6041.35 1960.33 6059.35 1977.67 6070.68 1999V1930C6070.68 1840.67 6027.01 1796 5939.68 1796C5896.35 1796 5853.01 1804.67 5809.68 1822L5791.68 1759C5839.01 1741 5888.35 1732 5939.68 1732C6011.68 1732 6063.01 1748.33 6093.68 1781C6125.01 1813 6140.68 1858.33 6140.68 1917V2242H6080.68ZM6570.26 2252C6514.92 2252 6463.26 2240.67 6415.26 2218L6436.26 2159C6480.26 2179 6524.92 2189 6570.26 2189C6619.59 2189 6653.59 2180.33 6672.26 2163C6690.92 2145.67 6700.26 2125.67 6700.26 2103C6700.26 2061 6667.92 2031.33 6603.26 2014L6569.26 2005C6517.92 1991 6480.26 1974 6456.26 1954C6432.26 1933.33 6420.26 1904.67 6420.26 1868C6420.26 1832 6436.26 1800.33 6468.26 1773C6500.26 1745.67 6546.26 1732 6606.26 1732C6660.26 1732 6708.59 1742 6751.26 1762L6730.26 1822C6684.92 1803.33 6643.26 1794 6605.26 1794C6563.26 1794 6532.92 1801.67 6514.26 1817C6495.59 1831.67 6486.26 1849 6486.26 1869C6486.26 1888.33 6493.59 1903.67 6508.26 1915C6523.59 1926.33 6548.92 1937 6584.26 1947L6617.26 1956C6669.92 1970.67 6708.26 1989.33 6732.26 2012C6756.26 2034.67 6768.26 2063.33 6768.26 2098C6768.26 2140.67 6751.92 2177 6719.26 2207C6687.26 2237 6637.59 2252 6570.26 2252ZM7178.27 2252C7122.93 2252 7071.27 2240.67 7023.27 2218L7044.27 2159C7088.27 2179 7132.93 2189 7178.27 2189C7227.6 2189 7261.6 2180.33 7280.27 2163C7298.93 2145.67 7308.27 2125.67 7308.27 2103C7308.27 2061 7275.93 2031.33 7211.27 2014L7177.27 2005C7125.93 1991 7088.27 1974 7064.27 1954C7040.27 1933.33 7028.27 1904.67 7028.27 1868C7028.27 1832 7044.27 1800.33 7076.27 1773C7108.27 1745.67 7154.27 1732 7214.27 1732C7268.27 1732 7316.6 1742 7359.27 1762L7338.27 1822C7292.93 1803.33 7251.27 1794 7213.27 1794C7171.27 1794 7140.93 1801.67 7122.27 1817C7103.6 1831.67 7094.27 1849 7094.27 1869C7094.27 1888.33 7101.6 1903.67 7116.27 1915C7131.6 1926.33 7156.93 1937 7192.27 1947L7225.27 1956C7277.93 1970.67 7316.27 1989.33 7340.27 2012C7364.27 2034.67 7376.27 2063.33 7376.27 2098C7376.27 2140.67 7359.93 2177 7327.27 2207C7295.27 2237 7245.6 2252 7178.27 2252Z" fill="black"/>
<path d="M2458.09 263.5C2458.09 394.668 2353.08 501 2223.55 501C2094.01 501 1989 394.668 1989 263.5C1989 132.332 2094.01 26 2223.55 26C2353.08 26 2458.09 132.332 2458.09 263.5Z" fill="#19CE81"/>
</svg>
